<svg data-name="Layer 1" xmlns="http://www.w3.org/2000/svg" width="226.8" height="226.8" viewBox="0 0 226.8 226.8"><path d="M159.2 65.5a102 102 0 0 0-4.9-23.2 6 6 0 0 0-6.7-3.3c-2.5.8-3.3 3.3-3.3 6.6l2.5 5.8 2.4 17.4a5.2 5.2 0 0 0 5.1 4.2h1.9a4 4 0 0 0 3-4.9zM121.9 37.4a5.7 5.7 0 0 0-4.1-3.4c-4.2-.8-6.6 2.5-5.8 6.7a165.1 165.1 0 0 1 7.4 34.7c.9 3.4.9 7.5 1.8 10.8a5 5 0 0 0 9.9-.9v-1.6c-1.7-7.4-2.5-14.9-4.1-22.4zM99.1 77.9v-.3l-1.6-7.5-.3-1.3c-.5-2.5-.1-3.4-1.7-7.5s-2.5-9.1-4.1-13.2l-.2-.5h-.1a4.9 4.9 0 0 0-6.4-2.7l-.6.2a4.2 4.2 0 0 0-1.9 5.6c0 1.6.9 3.3.9 4.9l1.6 5.4a18 18 0 0 0 .6 2.2l.9 3.3.7 2.7.6 2.7c.2 1.1.7 2.7.8 3.2s.3 1.2.4 1.8c1.4 6.5 2.5 12.8 3.3 19.3l1 8.2v.2a4.2 4.2 0 0 0 3.3 4.8 4.4 4.4 0 0 0 2 .2h.2a4.8 4.8 0 0 0 4.4-5.2v-2.5c-.9-8-2.2-16-3.8-24z"/><path d="M113.4 0a113.4 113.4 0 1 0 113.4 113.4A113.4 113.4 0 0 0 113.4 0zm70.7 186.3a50.9 50.9 0 0 1-25.7 10.9 53 53 0 0 1-35.6-5.1 32.6 32.6 0 0 1-18.2-16.6 13.2 13.2 0 0 1-1.5-2.9 146.3 146.3 0 0 1-14.3 7.1 21.8 21.8 0 0 1-12.4.9c-57.9-10-47.9-71.2-47.9-71.2l.6-.2c0 .1.1.1.1.2l15 10.8 33.8 22c6.6 4.6 15.3 1.7 23.3-3.1a94.9 94.9 0 0 0 8.3-5.8v4a24.4 24.4 0 0 0 9.1 19.9c1.4 1.1 2.8 2.2 4.3 3.2a47.3 47.3 0 0 0 27.1 7.5l5.8-.8a38.9 38.9 0 0 0 13.8-3.4 41.1 41.1 0 0 0 4.2-2.1l1.4-.8 2.5-1.8 1.3-1a24.2 24.2 0 0 0 9.9-18.3 27.3 27.3 0 0 0-.3-5.7 26.4 26.4 0 0 0-1.2-4l-.5-1.3-1.4-2.5a18.8 18.8 0 0 0-1.6-2.3 28.7 28.7 0 0 0-2.9-3.1l-1.2-.8-1.8-1.6-1.7-1h-.1l-.8-.6-1.3-.7-1.8-1.2h-.4a52.6 52.6 0 0 0-14.1-5l-4.5-.5a54.7 54.7 0 0 0-12.1.8c14.1-8.7 30.5-18.4 36.1-21.5a5.9 5.9 0 0 0 4.2-5.8 187.6 187.6 0 0 0 1.7-22.4c-9.1-2.5-86.1 53-91.1 57.9-1.8 1.9-10.9-2.4-21.8-8.8a3.1 3.1 0 0 0 1.1-.9c0-.1.1-.1.1-.3l.2-.3.2-.5v-.3c.1-.3.1-.6.2-.8v-.2c0-.3.1-.8.1-1.1v-.8l-3.1-15-1.9-9c0-.2-.1-.6-.1-.8l-1.7-7.2c-.8-2.5-1.5-4.9-2.4-7.3a4.3 4.3 0 0 0-4.5-3l-1.5.2a4 4 0 0 0-2.5 2.3 8.7 8.7 0 0 0-.5 3.6s4.3 15.6 5.8 23.1l.6 3.7a24.6 24.6 0 0 0 .4 2.6 3.2 3.2 0 0 1 .3.9l.6 3.3h.1a21.4 21.4 0 0 0 .9 3.4c-16.4-9.9-33.7-22-35.3-23.9l1-.8 24-19.1a186.8 186.8 0 0 1 70.3-32.2 15.7 15.7 0 0 1 10.7.8 171.4 171.4 0 0 1 43.9 22.3l3.2 2.3c1.3.6 4.7 3.8 4.2 5.2 3.8 4.7.4 25.4-1 32.9a46.1 46.1 0 0 1-3.2 19.8 43.8 43.8 0 0 1 9.3 7.8 29.8 29.8 0 0 1 7.4 19.8l-.9 20.7a30.3 30.3 0 0 1-12.3 25.5zm-34-67c2.9 0 11.1 2.6 17.1 5.9 4.1 2.4 7.3 5 6.9 7.3-.8 5.8-2.5 5.1-2.5 6.7s-4.9 15.7-19.8 15.7c-7.3 0-12.9-1-17.1-3.1a19.3 19.3 0 0 1-9.4-10.1s-5-22.4 24.8-22.4z"/></svg>