<svg id="Layer_1" data-name="Layer 1" xmlns="http://www.w3.org/2000/svg" width="226.8" height="226.8" viewBox="0 0 226.8 226.8"><path d="M113.4,0A113.4,113.4,0,1,0,226.8,113.4,113.4,113.4,0,0,0,113.4,0Zm38.5,61.7c3.4,1.2,4,1.4,4.4,1.2s.5-1.1.7-3.5a22.1,22.1,0,0,1,1.7-8.4,10.9,10.9,0,0,1,.8-1.5,5.7,5.7,0,0,1-.4,1.4,20.3,20.3,0,0,0-.3,8.5c.6,4.4,1,4.9,5.6,9.8a81.1,81.1,0,0,1,5.5,6.2l1.7,2.1L169.9,76c-2-1.9-6.7-5.7-7.7-6.1s-.8-.3-1.2.1-.5,1-.6,3.8c-.2,4.4-.7,7.1-2.1,10s-.9,1.1-.2-.6.6-1.9.6-6c0-8.3-1-10.4-6.8-13.8a35,35,0,0,0-5.4-2.9l-2.7-1.3A75.8,75.8,0,0,1,151.9,61.7ZM84.3,46.5a30.9,30.9,0,0,1,9.1.8c6.9,1.7,13.2,6,19.8,13.5l1.9,2,2.5-.4c10.8-1.7,21.5-.5,30.7,3.8,2.6,1.1,6.6,3.5,7,4.1A26.8,26.8,0,0,1,156,73c.7,4.5.3,7.9-1,10.6s-.8,1.9-.3,3.1a3,3,0,0,0,2.7,1.7c2.3,0,4.7-3.7,5.8-8.8l.4-1.9.9,1c4.8,5.5,8.6,13.1,9.3,18.5l.2,1.4-.9-1.3a17.9,17.9,0,0,0-4.6-4.9c-3.3-2.1-6.7-3-15.9-3.4s-12.9-1.1-17.6-2.7c-7.9-2.5-11.9-6.1-21.2-18.4a98.6,98.6,0,0,0-9.4-11.1c-5.9-5.6-11.6-8.6-19-9.7C83.5,46.8,83.3,46.8,84.3,46.5Zm54.3,72.8a27.1,27.1,0,0,0-.9-4.1l-.4-1.6.8,1a17.8,17.8,0,0,1,3.2,5.7c.7,1.8.7,2.4.7,5.4a13.1,13.1,0,0,1-.7,5.2,14.2,14.2,0,0,1-4,6.5c-3.5,3.6-7.9,5.6-14.5,6.4-1.1.2-4.3.4-7.2.6-7.2.4-12,1.1-16.3,2.7l-1.2.3c-.3-.2,1.7-1.5,5.1-3.2s6.6-2.5,14.3-3.8c3.8-.6,7.6-1.4,8.6-1.7C135.3,135.9,140.1,128.5,138.6,119.3ZM93.5,108c-2.7,0-3.7-.3-4.7-1.7a9.8,9.8,0,0,1-.4-5.1,8.8,8.8,0,0,1,5.3-5.8,9.9,9.9,0,0,1,5.9.5c2.7,1.4,4.8,4.7,4.3,7S98.8,108,93.5,108ZM83.3,52.9l.2-2.2,1,.2a19.1,19.1,0,0,1,6,2.3c3.9,2.2,5.6,5.3,7.3,13.4a43.4,43.4,0,0,0,1.4,6,39.6,39.6,0,0,0,3.8,7c1.1,1.6,1.5,2.5-2,2.2s-7.5-2.4-11.6-8.1S82.8,59.4,83.3,52.9ZM52.4,168.2c0-1-1.2-3.6-3.5-7.1a39.3,39.3,0,0,1-4.5-9.2,23.5,23.5,0,0,1-1.3-9.5,16.1,16.1,0,0,1,1.8-7.8c1.2-2.3,1.9-3.3,6.1-8.6,7.4-9.4,10-15.6,10.9-22.4s3.1-11.3,4.7-13,1.9-3,1.9-3.7S63.4,76.4,56,63.1C44.4,42,44.4,42,44.7,42.2l12,18.7c8.5,13.2,14.7,22.4,15.6,23.3a6.9,6.9,0,0,0,4.7,2,9.9,9.9,0,0,0,4.1-1c1.7-1,.8-2-2-5.6a62.4,62.4,0,0,1-5-6.5l-.4-.5c-3.8-5.3-29-38.1-28.7-38.1S85.2,73.7,89.7,78.9L91,80.4l-.2,2.2a9.3,9.3,0,0,1-3.2,7.1C85,92.1,81.9,93.4,77,94.1c-3.2.4-4.1,1.1-5.4,2.3s-1.7,2.8-2,6.9c-.6,6.4-1.5,9.2-4.3,15.3s-3.6,7.6-2.9,11.6,4,7.7,8,10.5,6.1,5.3,6.8,6.7.8.7.7,4.1-.5,4.8-2.9,7.3c-3.9,4.1-10.5,7.5-18.9,9.4C52.6,169,52.4,169.2,52.4,168.2Zm92,22.4a15.7,15.7,0,0,1-7,1.7c-4.6,0-8.5-2.4-11.7-7.3-.6-1-2-3.8-3.1-6.3-3.4-8-5.1-10.4-9.1-12.9a11.3,11.3,0,0,0-11.2-1l-1.6,1a7.4,7.4,0,0,0-.8,10.3,9.7,9.7,0,0,0,5.5,2.8h1.1a5.8,5.8,0,0,0,5.6-6,4.5,4.5,0,0,0-3.1-4.7c-3.2-1.4-6.4.2-6.4,3.1a2.7,2.7,0,0,0,1.8,2.6c.7.4.9.4.2.3-2.9-.7-4.1-3.7-1.3-6.4s8.4-1.4,10.3,2.3a10.6,10.6,0,0,1,.2,6.6,9,9,0,0,1-10.9,5.3c-3.3-.7-4.6-1.7-8.4-5.7-6.6-6.9-9.3-8.2-19-9.8l-1.8-.3,2.1-1.8c7.1-6,15.9-10.3,24-11.6a35.2,35.2,0,0,1,12.1.5c5.1,1.3,9.7,4.4,12.1,7.8s3.4,6.6,4.4,13.2c.4,2.7.8,5.4,1,6,.8,3.5,1.2,5.5,4.2,7.6s8.1,2.3,13.2.3a4.9,4.9,0,0,1,1.7-.6C148.8,187.9,146.2,189.7,144.4,190.6ZM177.2,159c-2.1,8.3-6.9,14.7-13.8,18.5l-2,1c-.2,0,.3-1,.8-2.1a19.5,19.5,0,0,0,.9-15c-1.2-3.3-3.3-7.2-7.8-14s-6.7-9.8-7.9-12.5c-2.6-5.5-3.2-10.8-1.7-15.7a1.2,1.2,0,0,1,.5-1l1.3.7c1.1.8,3.5,2.1,9.8,5.5s12.2,7.7,15.3,11.3a25.5,25.5,0,0,1,5.1,11.8A44.4,44.4,0,0,1,177.2,159Zm5.7-26.5c-.7,2.4-2.5,6.8-3.1,7.1a2.8,2.8,0,0,1-.3-1.3c-.1-4.1-2.3-7.9-5.7-10.9s-9-6.3-21.8-11.4c-19.1-7.7-25.8-14.4-25.8-25.7,0-1.7,0-3,.2-3l1.7,1.3c3.8,3.1,8.2,4.5,20.1,6.2,7.1,1,11.1,1.8,14.7,3.1,11.7,4,18.9,11.8,20.6,22.5A41,41,0,0,1,182.9,132.5Z"/></svg>