<svg data-name="Layer 1" xmlns="http://www.w3.org/2000/svg" viewBox="0 0 227.22 227.22"><path d="M95.86 84.78q0 5.23 5.07 8.92a34.63 34.63 0 0 0 6 3.36V73.53a20.2 20.2 0 0 0-5.8 2.48q-5.27 3.36-5.27 8.77zM130 129.17a38.46 38.46 0 0 0-7.79-4.42c-.6-.27-1.24-.54-1.9-.81v29.62c1-.14 1.89-.32 2.81-.55a23.23 23.23 0 0 0 6.34-2.62 13.4 13.4 0 0 0 4.44-4.39 11.26 11.26 0 0 0 1.63-6.06 13.4 13.4 0 0 0-1.27-5.89 14.16 14.16 0 0 0-4.26-4.88z"/><path d="M113.61 0a113.61 113.61 0 1 0 113.61 113.61A113.6 113.6 0 0 0 113.61 0zm42.29 155.46a35 35 0 0 1-10.41 10.9 47.44 47.44 0 0 1-14.31 6.39 63.84 63.84 0 0 1-10.87 1.92V186h-13.4v-11.74a56.15 56.15 0 0 1-7.25-1.51 48.13 48.13 0 0 1-14-6.39 46.46 46.46 0 0 1-11-10.41 48.23 48.23 0 0 1-7.42-14.33l23-8.19a31 31 0 0 0 8.88 14.66 21 21 0 0 0 7.79 4.5v-33.4l-4.53-1.49a63.68 63.68 0 0 1-10.6-4.42 45.76 45.76 0 0 1-9.69-6.72 33.19 33.19 0 0 1-7.15-9.25 25.31 25.31 0 0 1-2.81-12 28.27 28.27 0 0 1 3-12.86 31.87 31.87 0 0 1 8.51-10.49 41.18 41.18 0 0 1 13.22-7 50.08 50.08 0 0 1 10.06-2.15V41.25h13.4v11.37a47.28 47.28 0 0 1 10.6 2.1A42.86 42.86 0 0 1 143 60.78a35.16 35.16 0 0 1 8.06 8.11 38 38 0 0 1 4.53 8.35l-21.55 8.19a20.84 20.84 0 0 0-6.62-8.84 16.79 16.79 0 0 0-7.15-3.33v28.55l4.89 1.48a99.12 99.12 0 0 1 14.22 5.65 44.5 44.5 0 0 1 11.05 7.62 30.72 30.72 0 0 1 7.06 10.07 32.56 32.56 0 0 1 2.45 13 29.56 29.56 0 0 1-4.04 15.83z"/></svg>